<svg xmlns="http://www.w3.org/2000/svg" xmlns:xlink="http://www.w3.org/1999/xlink" width="37.52" height="28.492" viewBox="0 0 37.52 28.492">
  <defs>
    <clipPath id="clip-path">
      <rect id="Rectangle_29" data-name="Rectangle 29" width="37.52" height="28.492" transform="translate(0 0)" fill="#fff"/>
    </clipPath>
  </defs>
  <g id="Group_2760" data-name="Group 2760" clip-path="url(#clip-path)">
    <path id="Path_1415" data-name="Path 1415" d="M19.066,28.444c-.942,0-1.8-.608-1.674-4.248s.662-5.319.75-9.281-.22-9.209-.1-12.225c.1-2.537.412-3.642,1.981-1.707a10.408,10.408,0,0,1,2.249,6.132c0,2.053-1.622,3.856-2.321,6.247s-.295,5.425.142,7.977c.148.87.431,1.809.542,2.887.211,2.077-.009,4.218-1.572,4.218" transform="translate(-10.539 -0.001)" fill="#fff"/>
    <path id="Path_1416" data-name="Path 1416" d="M2.985,31.4c1.394,0,2.089-2.164,1.472-5.178a44.685,44.685,0,0,1-.915-7.7,6.934,6.934,0,0,1,.822-4.106c.65-1.108,1.487-1.9,1.5-3.724a40,40,0,0,0-.217-4.66c-.124-.967-.2-1.156-.374-1.156S5.029,5.5,5,6.726s.045,3.137-.093,4.3-.418,1.192-.743,1.192-.714-.051-.774-1.653-.142-4.136-.142-4.913c0-.951-.569-1.111-.572.078,0,.674-.015,3.615-.093,4.819s-.277,1.683-.819,1.683-.747-.7-.813-1.43c-.072-.78-.1-4.325-.1-5.057,0-.87-.262-1.108-.419-.539A23.992,23.992,0,0,0,.011,10.45c.078,2.282.747,2.637,1.409,3.868a7.249,7.249,0,0,1,.915,4.458,65.59,65.59,0,0,1-.873,7.5c-.382,2.186-.274,5.12,1.523,5.12" transform="translate(0 -2.955)" fill="#fff"/>
    <path id="Path_1417" data-name="Path 1417" d="M42.165,6.692a11.164,11.164,0,0,0-11.017,11.28,11.02,11.02,0,1,0,22.035,0A11.164,11.164,0,0,0,42.165,6.692m0,24.612A13.2,13.2,0,0,1,29.139,17.972a13.029,13.029,0,1,1,26.051,0A13.2,13.2,0,0,1,42.165,31.3" transform="translate(-17.67 -2.812)" fill="#fff"/>
  </g>
</svg>
